<?xml version="1.0" encoding="utf-8"?>
<!-- Generator: Adobe Illustrator 26.0.1, SVG Export Plug-In . SVG Version: 6.00 Build 0)  -->
<svg version="1.1" id="Layer_1" xmlns="http://www.w3.org/2000/svg" xmlns:xlink="http://www.w3.org/1999/xlink" x="0px" y="0px"
	 viewBox="0 0 35.7 35.7" enable-background="new 0 0 35.7 35.7" xml:space="preserve">
<path fill="none" d="M17.8,0c9.9,0,17.8,8,17.8,17.8s-8,17.8-17.8,17.8S0,27.7,0,17.8C0,8,8,0,17.8,0C17.8,0,17.8,0,17.8,0z"/>
<g>
	<path fill="#FFFFFF" d="M9.7,18c-0.3,0.4-0.5,1-0.6,1.5c0,0.7,0.2,1.5,0.8,2.1c0.5,0.5,1.2,0.7,1.9,0.7c0.3,0,0.6-0.2,0.7-0.4
		c0.1,0.3,0.4,0.4,0.7,0.4h1.4c-0.7,1.2-1.5,2.6-1.5,4.3c0,0.6,0.1,1.1,0.4,1.7c0.3,0.5,0.9,0.8,1.5,0.8l0,0c0.5,0,1-0.3,1.2-0.7
		c0.3-0.4,0.5-0.8,0.7-1.2c0.4-0.9,1-1.7,1.6-2.4c1.4-0.8,2.7-2,3.6-3.3c1.2-0.9,2.6-1.3,4.1-1.1c0.4,0,0.7-0.3,0.7-0.7V12
		c0-0.4-0.3-0.7-0.7-0.7c0,0,0,0,0,0c-1.6-0.1-3.1-0.5-4.6-1.1c-1.6-0.7-3.4-1.1-5.1-1.2l-1.7,0c-0.1,0-0.1,0-0.2,0
		c-0.8,0-1.5,0.2-2.2,0.6c-0.5,0.4-0.9,0.9-1,1.5c-0.4,0.1-0.7,0.4-0.9,0.8c-0.3,0.5-0.5,1.2-0.5,1.8c0,0.3,0,0.5,0.1,0.8
		c-0.6,0.4-0.9,1.1-1,1.8c0,0.5,0.1,0.9,0.4,1.3C9.6,17.8,9.6,17.9,9.7,18z M11.3,15.5c0.3-0.2,0.5-0.6,0.3-0.9
		c-0.1-0.3-0.2-0.6-0.2-0.9c0-0.4,0.1-0.7,0.3-1c0.1-0.1,0.2-0.2,0.3-0.2c0.4,0,0.7-0.3,0.7-0.7c0-0.3,0.1-0.7,0.4-0.8
		c0.4-0.3,1-0.4,1.5-0.4l1.7,0c1.6,0.1,3.2,0.5,4.7,1.1c1.4,0.6,2.9,0.9,4.4,1.1v6.1c-1.6,0-3.1,0.5-4.3,1.5L21,20.4l-0.1,0.1
		c-0.8,1.3-2,2.3-3.3,3.1l-0.2,0.1c-0.8,0.9-1.4,1.8-1.9,2.8c-0.2,0.3-0.4,0.7-0.6,1c-0.1,0.1-0.1,0.2-0.1,0.2c-0.1,0-0.1,0-0.2-0.1
		c-0.1-0.3-0.2-0.6-0.2-0.9c0-1.5,0.7-2.7,1.5-4.1c0.1-0.2,0.3-0.4,0.4-0.7c0.2-0.3,0.1-0.8-0.3-1c-0.1-0.1-0.2-0.1-0.4-0.1h-2.6
		c-0.3,0-0.6,0.2-0.7,0.4c0-0.1-0.1-0.2-0.2-0.2c-0.1-0.1-0.3-0.2-0.5-0.2c0,0,0,0,0,0c-0.4,0-0.7-0.1-0.9-0.3
		c-0.2-0.3-0.4-0.6-0.3-0.9c0-0.4,0.2-0.8,0.5-1c0.3-0.2,0.5-0.6,0.3-1l-0.2-0.2c-0.2-0.2-0.4-0.3-0.5-0.5c-0.1-0.1-0.1-0.3-0.1-0.4
		C10.6,16.1,10.9,15.7,11.3,15.5z"/>
	<path fill="#FFFFFF" d="M17.8,35.7c9.9,0,17.8-8,17.8-17.8S27.7,0,17.8,0C8,0,0,8,0,17.8S8,35.7,17.8,35.7z M6.3,6.3
		c3.1-3.1,7.2-4.8,11.6-4.8c4.4,0,8.5,1.7,11.6,4.8c3.1,3.1,4.8,7.2,4.8,11.6c0,4.4-1.7,8.5-4.8,11.6c-3.1,3.1-7.2,4.8-11.6,4.8
		c-4.4,0-8.5-1.7-11.6-4.8s-4.8-7.2-4.8-11.6C1.5,13.5,3.2,9.4,6.3,6.3z"/>
</g>
</svg>
