<svg id="Layer_1" data-name="Layer 1" xmlns="http://www.w3.org/2000/svg" viewBox="0 0 479.19 197.61"><g id="Group_494" data-name="Group 494"><g id="Group_490" data-name="Group 490"><path id="Path_1277" data-name="Path 1277" d="M15.59,104.82a6.35,6.35,0,1,0,6.35,6.34h0A6.36,6.36,0,0,0,15.59,104.82Zm0,11a4.61,4.61,0,1,1,4.61-4.61h0a4.61,4.61,0,0,1-4.61,4.6Z" fill="#193c8f" stroke="#193c8f" stroke-miterlimit="10" stroke-width="0.13"/><path id="Path_1278" data-name="Path 1278" d="M91.9,57a5.83,5.83,0,0,0-6.19,5.46,3.85,3.85,0,0,0,0,.48v2.36h0a.85.85,0,0,0,1.69,0V62.94a4.13,4.13,0,0,1,3.92-4.32h.4A4.07,4.07,0,0,1,96,62.45c0,.14,0,.29,0,.44a4.69,4.69,0,0,1-.67,2.83l-6,8v7h0a.85.85,0,0,0,1.7,0h0V74.08l5.42-7.18A6.18,6.18,0,0,0,91.9,57Z" fill="#193c8f" stroke="#193c8f" stroke-miterlimit="10" stroke-width="0.13"/><path id="Path_1279" data-name="Path 1279" d="M90.6,85A6.35,6.35,0,1,0,97,91.3h0A6.37,6.37,0,0,0,90.6,85Zm0,11.16a4.81,4.81,0,1,1,4.81-4.81,4.82,4.82,0,0,1-4.81,4.81Z" fill="#193c8f" stroke="#193c8f" stroke-miterlimit="10" stroke-width="0.13"/><path id="Path_1280" data-name="Path 1280" d="M48.64,104.7A6.35,6.35,0,1,0,55,111.05h0A6.36,6.36,0,0,0,48.64,104.7Zm0,11a4.61,4.61,0,1,1,4.6-4.6h0A4.6,4.6,0,0,1,48.64,115.65Z" fill="#193c8f" stroke="#193c8f" stroke-miterlimit="10" stroke-width="0.13"/><path id="Path_1281" data-name="Path 1281" d="M90.94,45.48a31.73,31.73,0,1,0,31.72,31.73h0A31.77,31.77,0,0,0,90.94,45.48Zm0,61.66a29.93,29.93,0,1,1,29.93-29.93A29.93,29.93,0,0,1,90.94,107.14Z" fill="#0b0a0a"/><path id="Path_1282" data-name="Path 1282" d="M112.28,72.85h0a.85.85,0,0,0,1.66-.34,22.94,22.94,0,0,0-1.57-4.58l-1.53.73A23.76,23.76,0,0,1,112.28,72.85Z" fill="#0b0a0a"/><path id="Path_1283" data-name="Path 1283" d="M91.4,121.62V128a4.48,4.48,0,0,1-4.35,4.6H76.13a.88.88,0,0,0-.24,1.75,1,1,0,0,0,.24,0H86.71A6.36,6.36,0,0,0,93.05,128v-6.34C93.05,120.25,91.3,120.22,91.4,121.62Z" fill="#0b0a0a"/><path id="Path_1284" data-name="Path 1284" d="M71.9,132.52H67.67a.9.9,0,0,0,0,1.79H71.9a.89.89,0,0,0,.81-1A.9.9,0,0,0,71.9,132.52Z" fill="#0b0a0a"/><path id="Path_1285" data-name="Path 1285" d="M117.63,49.71C109.18,42,100,38.44,87,39.21,70.83,40.37,54.74,54.32,53.24,73.4a49.08,49.08,0,0,0-.12,5.69l-38.32.24A14.82,14.82,0,0,0,0,94.13V128a14.82,14.82,0,0,0,14.8,14.8h6.35V163.2a5,5,0,0,0,5,5,4.61,4.61,0,0,0,3.91-1.9c.9-1.05,8.51-14.73,13.5-23.47h43.2a14.83,14.83,0,0,0,14.8-14.8l-.15-14.25c13.5-3.85,26-16.08,27.58-32.3A38.39,38.39,0,0,0,117.63,49.71ZM86.78,141.05l-44.67,0L28.63,164.63c-2.3,3.12-5.25.85-5.51-1.46L23,141.05l-8.1-.13A13.35,13.35,0,0,1,1.78,128V94.13c0-5.83,5.3-13,12.73-13l38.77-.2c1,8.81,5.2,18.2,12.53,24l0,12.41a39.08,39.08,0,0,0,.09,4,2,2,0,0,0,1.43,1.78,3,3,0,0,0,3.17-.43l9.24-9.51A41.07,41.07,0,0,0,94,114.94c1-.08,4.47-.62,5.42-.77l.26,13.53c0,5.83-4.91,13.48-12.88,13.35Zm40.37-60.56A36.36,36.36,0,0,1,94.33,113a37.21,37.21,0,0,1-14.07-1.46L79,111.1l-9.88,10.26a.89.89,0,0,1-1.25-.08.87.87,0,0,1-.22-.52V104.48l-.7-.63a36.21,36.21,0,0,1,20.3-62.92c10.17-.78,21.43,2.71,29.07,10.4A36.49,36.49,0,0,1,127.15,80.49Z" fill="#0b0a0a"/><path id="Path_1286" data-name="Path 1286" d="M32,104.82a6.35,6.35,0,1,0,6.34,6.34h0A6.34,6.34,0,0,0,32,104.82Zm0,11a4.61,4.61,0,1,1,4.6-4.62h0a4.6,4.6,0,0,1-4.6,4.6Z" fill="#193c8f" stroke="#193c8f" stroke-miterlimit="10" stroke-width="0.13"/><path id="Path_1287" data-name="Path 1287" d="M63.44,132.52H59.21a.9.9,0,0,0,0,1.79h4.23a.89.89,0,0,0,.81-1A.9.9,0,0,0,63.44,132.52Z" fill="#0b0a0a"/><path id="Path_1288" data-name="Path 1288" d="M112.8,77.21h0a21.29,21.29,0,0,1-8.6,17.44h0c-.82.61.1,2,1,1.36A23.55,23.55,0,0,0,114.5,77.2a.85.85,0,1,0-1.7,0Z" fill="#0b0a0a"/><path id="Path_1289" data-name="Path 1289" d="M110.86,68.65l1.53-.73a.85.85,0,0,0-1.53.73Z" fill="#0b0a0a"/></g><g id="Group_491" data-name="Group 491"><circle id="Ellipse_114" data-name="Ellipse 114" cx="368" cy="121.35" r="1.03" fill="#0b0a0a"/><path id="Path_1290" data-name="Path 1290" d="M438.35,132.9a1,1,0,1,0,1,1A1,1,0,0,0,438.35,132.9Z" fill="#0b0a0a"/><path id="Path_1291" data-name="Path 1291" d="M438.46,138.07a.93.93,0,0,0-.91,1,.22.22,0,0,0,0,.08l0,9-24.43.11.05-5.39a17.84,17.84,0,0,0,6.43-7.79,17.64,17.64,0,0,0-3.81-19.43,17.83,17.83,0,0,0-29,5.64,17.65,17.65,0,0,0,3.81,19.42,18.09,18.09,0,0,0,2.63,2.16v5.28H369V126.51a1,1,0,1,0-2.06,0h0v22.17a1,1,0,0,0,1,1h25.22v17.41a1,1,0,0,0,.71,1,.86.86,0,0,0,.32.05,1,1,0,0,0,.83-.42l8.37-11.4,7.8,11.38a1,1,0,0,0,1.16.4,1,1,0,0,0,.72-1V149.71h25.22a1,1,0,0,0,1-1h0v-9.58a.94.94,0,0,0-.85-1Zm-27.39,10.61V163.8L404.33,154a1,1,0,0,0-.83-.44h0a1.06,1.06,0,0,0-.83.42l-7.37,10V144a17.34,17.34,0,0,0,2.58,1l.09,0a14.22,14.22,0,0,0,1.59.4l.19,0c.53.1,1,.18,1.59.24l.2,0c.55.05,1.1.08,1.65.08h0c.56,0,1.11,0,1.66-.08l.2,0c.54-.06,1.06-.14,1.59-.24l.19,0c.53-.11,1.06-.24,1.59-.4l.09,0a17.3,17.3,0,0,0,2.58-1Zm-.14-6.65-.5.26c-.3.15-.59.29-.89.42l-.54.22c-.27.1-.53.2-.8.28l-.5.17c-.41.12-.83.22-1.25.31l-.44.07c-.32.06-.65.11-1,.15l-.46.05c-.45,0-.9.06-1.36.06h-.08q-.67,0-1.35-.06l-.46-.05-1-.14-.46-.08c-.41-.09-.82-.19-1.23-.31l-.53-.17-.76-.27-.57-.23c-.28-.13-.57-.26-.84-.4l-.57-.3a16.15,16.15,0,0,1-3.55-2.66,16,16,0,1,1,22.74-.08l-.07.08a16.1,16.1,0,0,1-3.58,2.68Z" fill="#0b0a0a"/><path id="Path_1292" data-name="Path 1292" d="M368,117.22a1,1,0,0,0,1-1v-59h54.15l.08,13.3a1,1,0,0,0,1,1h13.38v57.32a.87.87,0,0,0,.79.94h.12c.57,0,.81-.41.81-1V70.46s0,0,0-.06a.75.75,0,0,0-.05-.26.49.49,0,0,0,0-.11,1,1,0,0,0-.2-.3L425,55.73a1.21,1.21,0,0,0-.3-.2l-.11,0-.24-.05H368a1,1,0,0,0-1,1v59.73A1,1,0,0,0,368,117.22Zm57-59.1,11.7,11.68H425Z" fill="#0b0a0a"/><path id="Path_1293" data-name="Path 1293" d="M358.74,100.35a1,1,0,1,0,1,1,1,1,0,0,0-1-1Z" fill="#0b0a0a"/><path id="Path_1294" data-name="Path 1294" d="M375.42,71.5h27.8a.87.87,0,0,0,.34-1.7.65.65,0,0,0-.34,0h-27.8a.86.86,0,0,0-1,.68.87.87,0,0,0,.68,1A.91.91,0,0,0,375.42,71.5Z" fill="#0b0a0a"/><path id="Path_1295" data-name="Path 1295" d="M430.94,77.91H375.43a.84.84,0,1,0-.39,1.63.86.86,0,0,0,.39,0h55.51a.84.84,0,0,0,.38-1.63A.81.81,0,0,0,430.94,77.91Z" fill="#0b0a0a"/><path id="Path_1296" data-name="Path 1296" d="M430.94,86.5H375.43a.87.87,0,0,0-.32,1.72.86.86,0,0,0,.32,0h55.51a.87.87,0,0,0,.31-1.72A.81.81,0,0,0,430.94,86.5Z" fill="#0b0a0a"/><path id="Path_1297" data-name="Path 1297" d="M430.94,94.63H375.43a.87.87,0,1,0-.33,1.7.91.91,0,0,0,.33,0h55.51a.86.86,0,1,0,0-1.7Z" fill="#0b0a0a"/><path id="Path_1298" data-name="Path 1298" d="M353,55.43a6.82,6.82,0,0,0-6.82,6.8V83.1h-5.9a1,1,0,0,0-.72.3,1.06,1.06,0,0,0-.31.73V106c0,.57.29,1,.86,1s.83-.39.83-1V84.71h5.24v52.47a1.17,1.17,0,0,0,.08.37l6,14a1,1,0,0,0,.94.63h0a1,1,0,0,0,.94-.65l5.54-14h0v0a1,1,0,0,0,.06-.34s0,0,0,0v-30.6a1,1,0,0,0-.92-1h0a1,1,0,0,0-.95,1v0l.13,29.54H347.74L348,76l9.95,0V96.29a.91.91,0,0,0,.86,1h.1a.94.94,0,0,0,.92-1,.17.17,0,0,0,0-.07v-34A6.82,6.82,0,0,0,353,55.43Zm4.85,82.39-4.62,11.67-5-11.67Zm.14-63.58H348v-5h10Zm0-6.7H348V62.16a4.9,4.9,0,0,1,1.37-3.44A4.84,4.84,0,0,1,353,57.16a4.49,4.49,0,0,1,3.55,1.51,5.13,5.13,0,0,1,1.44,3.51Z" fill="#0b0a0a"/><path id="Path_1299" data-name="Path 1299" d="M403.18,119.16a8.93,8.93,0,1,0,6.33,2.61A8.94,8.94,0,0,0,403.18,119.16Zm0,16.23a7.31,7.31,0,1,1,7.35-7.31,7.32,7.32,0,0,1-7.35,7.31Z" fill="#0b0a0a"/><path id="Path_1300" data-name="Path 1300" d="M413.09,148.16l.05-5.39a17.77,17.77,0,1,0-22.55-2.16,18.77,18.77,0,0,0,2.63,2.16v24.35a1,1,0,0,0,1.86.61l8.37-11.4,7.8,11.38a1,1,0,0,0,1.88-.59V149.71Zm-2,.52V163.8L404.33,154a1,1,0,0,0-.83-.44h0a1,1,0,0,0-.83.42l-7.37,10V144a16.92,16.92,0,0,0,2.58,1l.09,0c.52.16,1.05.29,1.59.4l.19,0c.52.1,1,.18,1.58.24l.21,0c.55.05,1.1.08,1.65.08h0c.55,0,1.1,0,1.65-.08l.2,0q.81-.09,1.59-.24l.19,0c.54-.11,1.07-.24,1.59-.4l.09,0a16.88,16.88,0,0,0,2.58-1Zm-.14-6.65-.5.26c-.3.15-.59.29-.89.42l-.54.22c-.27.1-.53.2-.8.28l-.5.17c-.41.12-.83.22-1.25.31l-.44.07c-.33.06-.65.11-1,.15l-.46.05c-.45,0-.9.06-1.36.06h-.08q-.67,0-1.35-.06l-.46-.05-1-.14-.46-.08c-.41-.09-.82-.19-1.23-.31l-.53-.17-.76-.27-.57-.23c-.28-.13-.57-.26-.84-.4l-.57-.3a16.15,16.15,0,0,1-3.55-2.66,15.89,15.89,0,0,1-.07-22.47l.07-.07a16.09,16.09,0,0,1,22.67,0,15.89,15.89,0,0,1,.08,22.46.6.6,0,0,0-.08.08A16.1,16.1,0,0,1,410.93,142Z" fill="#193c8f" stroke="#193c8f" stroke-miterlimit="10" stroke-width="0.13"/><path id="Path_1301" data-name="Path 1301" d="M403.18,119.16a8.93,8.93,0,1,0,6.33,2.61A8.94,8.94,0,0,0,403.18,119.16Zm0,16.23a7.31,7.31,0,1,1,7.35-7.31,7.31,7.31,0,0,1-7.35,7.31Z" fill="#193c8f"/></g><g id="Group_492" data-name="Group 492"><path id="Path_1302" data-name="Path 1302" d="M284.25,88.53a8,8,0,0,0-6.08-2.75,8.78,8.78,0,0,0-5.36,1.9.23.23,0,0,1-.16.06h-5.44a.28.28,0,0,1-.28-.27l0-38.11a.87.87,0,0,0-.86-.86H199.12c-8.14,0-13.82,5.69-13.82,13.82v75a12.22,12.22,0,0,0,12.2,12.2H266a.87.87,0,0,0,.86-.86v-2.13a.85.85,0,0,0-.82-.85,7.81,7.81,0,0,1,0-15.59.86.86,0,0,0,.82-.85V100.88a.29.29,0,0,1,.28-.28h5.49a.27.27,0,0,1,.16.06,8.73,8.73,0,0,0,4.33,1.83,8.3,8.3,0,0,0,9.1-7.11A8.61,8.61,0,0,0,284.25,88.53Zm-41.66,9.93V89.88a.27.27,0,0,1,.28-.28h30.66l.54-.47a7.28,7.28,0,0,1,4.07-1.58,6.32,6.32,0,0,1,6.41,6.22c0,.13,0,.27,0,.4a6.62,6.62,0,0,1-6.11,6.59,6.4,6.4,0,0,1-4.2-1.5l-.53-.52H242.87a.28.28,0,0,1-.28-.27Zm15,35.77a.27.27,0,0,1-.26.19l-54.9.24a1,1,0,0,0-1,.86v.21a.8.8,0,0,0,.24.55,1.06,1.06,0,0,0,.73.3h0l54.23-.27h0a.33.33,0,0,1,.21.09.31.31,0,0,1,.07.2,11.9,11.9,0,0,0,.06,2.53.26.26,0,0,1-.07.21.23.23,0,0,1-.2.1l-9,.1a.86.86,0,0,0-.85.86v.11a.86.86,0,0,0,.85.86h0l9.65,0h0a.27.27,0,0,1,.25.18,10,10,0,0,0,7.43,5.83v.43l-68.75-.08c-3.91-.09-6.78-3.17-8.05-5.79a.25.25,0,0,1,0-.25.28.28,0,0,1,.24-.13l54.86-.1a.87.87,0,0,0,.86-.86v-.13a.88.88,0,0,0-.86-.84h0l-55.56.09a.29.29,0,0,1-.28-.25,14.7,14.7,0,0,1-.1-2.57.28.28,0,0,1,.28-.26h10.12a1,1,0,0,0,1-1,1,1,0,0,0-1-.88h-9.1a.25.25,0,0,1-.22-.12.28.28,0,0,1,0-.28c1.71-4.38,5.76-6.35,8.09-6.35l68-.11h0a.27.27,0,0,1,.28.27v.14a.29.29,0,0,1-.25.28,10.09,10.09,0,0,0-7,5.69Zm7.27-8.22a.29.29,0,0,1-.28.28H197.16a.28.28,0,0,1-.27-.28l0-47.44a.9.9,0,0,0-.9-.9h0a.93.93,0,0,0-.92.93h0v47.62a.3.3,0,0,1-.25.27c-3.08.54-5.73,3.1-7.07,5.11a.26.26,0,0,1-.3.11.29.29,0,0,1-.2-.27V61.76a11.74,11.74,0,0,1,7.32-10.7.16.16,0,0,1,.1,0,.24.24,0,0,1,.16.05.27.27,0,0,1,.12.22l.12,22.8a.9.9,0,0,0,.9.9h0a.85.85,0,0,0,.84-.84h0l0-23.4a.27.27,0,0,1,.27-.27h67.62a.28.28,0,0,1,.28.27V87.54a.28.28,0,0,1-.28.27h-8.73a.27.27,0,0,1-.27-.27V60.73a.86.86,0,0,0-.86-.86H207.19a.86.86,0,0,0-.86.85L206.21,92a.86.86,0,0,0,.85.86l8.75.08a.27.27,0,0,1,.27.28v10a.25.25,0,0,1-.19.27,3.82,3.82,0,0,0-3,3.66v2.67a4.1,4.1,0,0,0,4.1,4.1h24.79a4.09,4.09,0,0,0,4.1-4.1v-2.66a3.54,3.54,0,0,0-3-3.5.27.27,0,0,1-.23-.27V100.6a.28.28,0,0,1,.28-.28h0l21.91.2a.28.28,0,0,1,.28.28ZM214.67,80.92V78.1a2,2,0,0,1,2-2h25.17a2.19,2.19,0,0,1,2.2,2.2v2.54A2.1,2.1,0,0,1,241.92,83h-25.2a2.05,2.05,0,0,1-2.05-2ZM244,110.07a2.1,2.1,0,0,1-2.09,2.09h-25.2a2.05,2.05,0,0,1-2.05-2v-2.82a2,2,0,0,1,2-2h25.18a2.2,2.2,0,0,1,2.2,2.2Zm-26.21-6.72V85a.28.28,0,0,1,.28-.27h22.4a.28.28,0,0,1,.28.27l.12,18.34a.28.28,0,0,1-.28.28H218.08a.28.28,0,0,1-.28-.28ZM242.59,85a.27.27,0,0,1,.22-.27,3.55,3.55,0,0,0,3-3.49V78.54a4.1,4.1,0,0,0-4.1-4.11H216.94a4.11,4.11,0,0,0-4.1,4.11v2.67a3.55,3.55,0,0,0,3,3.49.27.27,0,0,1,.22.27v5.72a.28.28,0,0,1-.28.28h-7.32a.28.28,0,0,1-.28-.28V62a.28.28,0,0,1,.28-.28h44.9a.28.28,0,0,1,.27.28V87.41a.28.28,0,0,1-.27.28H242.86a.28.28,0,0,1-.27-.28h0Z" fill="#1a1818"/><path id="Path_1303" data-name="Path 1303" d="M253.05,118.56h-2a.93.93,0,1,0,0,1.86h2a.93.93,0,0,0,0-1.86Z" fill="#1a1818"/><path id="Path_1304" data-name="Path 1304" d="M259.53,118.56h-2a.93.93,0,1,0,0,1.86h2a.93.93,0,1,0,0-1.86Z" fill="#1a1818"/><path id="Path_1305" data-name="Path 1305" d="M210.92,118.56h-2a.93.93,0,1,0,0,1.86h2a.93.93,0,1,0,0-1.86Z" fill="#1a1818"/><path id="Path_1306" data-name="Path 1306" d="M204.44,118.56h-2a.93.93,0,1,0,0,1.86h2a.93.93,0,1,0,0-1.86Z" fill="#1a1818"/><path id="Path_1307" data-name="Path 1307" d="M246.56,118.55H215.45a.94.94,0,1,0,0,1.88h31.11a.94.94,0,0,0,0-1.88Z" fill="#1a1818"/></g><g id="Group_493" data-name="Group 493"><path id="Path_1308" data-name="Path 1308" d="M284.25,88.54a8,8,0,0,0-6.08-2.75,8.76,8.76,0,0,0-5.36,1.9.21.21,0,0,1-.17.07l-29.78-.07a.27.27,0,0,1-.27-.27V85a.25.25,0,0,1,.22-.27,3.56,3.56,0,0,0,3-3.5V78.54a4.11,4.11,0,0,0-4.1-4.1H216.94a4.1,4.1,0,0,0-4.1,4.1v2.67a3.55,3.55,0,0,0,3,3.5.26.26,0,0,1,.22.27v18.23a.29.29,0,0,1-.2.27,3.82,3.82,0,0,0-3,3.66v2.67a4.09,4.09,0,0,0,4.1,4.1h24.79a4.1,4.1,0,0,0,4.1-4.1v-2.67a3.55,3.55,0,0,0-3-3.49.28.28,0,0,1-.22-.27V100.6a.27.27,0,0,1,.28-.28l29.79.29a.23.23,0,0,1,.16.06,8.76,8.76,0,0,0,4.33,1.83,8.3,8.3,0,0,0,9.11-7.11A8.69,8.69,0,0,0,284.25,88.54Zm-40.24,19v2.54a2.09,2.09,0,0,1-2.09,2.09h-25.2a2,2,0,0,1-2.05-2V107.3a2,2,0,0,1,2-2H241.8a2.2,2.2,0,0,1,2.21,2.19Zm-26.21-4.17V85a.29.29,0,0,1,.28-.28h22.4a.3.3,0,0,1,.28.28l.12,18.34a.28.28,0,0,1-.09.2.28.28,0,0,1-.2.08H218.08a.28.28,0,0,1-.28-.28ZM241.92,83h-25.2a2.06,2.06,0,0,1-2.05-2V78.12a2,2,0,0,1,2-2H241.8a2.2,2.2,0,0,1,2.2,2.2v2.54A2.09,2.09,0,0,1,241.92,83Zm36.51,17.78a6.3,6.3,0,0,1-4.2-1.49l-.54-.53H242.87a.27.27,0,0,1-.28-.27V89.89a.28.28,0,0,1,.28-.28h30.66l.54-.47a7.34,7.34,0,0,1,4.07-1.57,6.32,6.32,0,0,1,6.41,6.21c0,.14,0,.27,0,.4a6.61,6.61,0,0,1-6.12,6.59Z" fill="#193c8f" stroke="#193c8f" stroke-miterlimit="10" stroke-width="0.13"/></g><path id="Path_1309" data-name="Path 1309" d="M142.7,121.24V44.32A43.32,43.32,0,0,1,186,1h0a43.33,43.33,0,0,1,43.32,43.32" fill="none" stroke="#1a1818" stroke-miterlimit="10" stroke-width="2"/><path id="Path_1310" data-name="Path 1310" d="M142.7,70.29v76.93a43.32,43.32,0,0,1-43.31,43.32h0a43.32,43.32,0,0,1-43.32-43.32" fill="none" stroke="#1a1818" stroke-miterlimit="10" stroke-width="2"/><path id="Path_1311" data-name="Path 1311" d="M315.18,127.32V50.39A43.33,43.33,0,0,1,358.5,7.07h0a43.32,43.32,0,0,1,43.32,43.32h0" fill="none" stroke="#1a1818" stroke-miterlimit="10" stroke-width="2"/><path id="Path_1312" data-name="Path 1312" d="M315.19,76.37V153.3a43.31,43.31,0,0,1-43.32,43.31h0a43.32,43.32,0,0,1-43.32-43.31h0" fill="none" stroke="#1a1818" stroke-miterlimit="10" stroke-width="2"/></g><g id="_1" data-name=" 1" style="isolation:isolate"><g style="isolation:isolate"><path d="M41.76,68.58H20V66.29c.64,0,1.65-.13,3-.27a18.14,18.14,0,0,0,2.82-.44,2.9,2.9,0,0,0,1.53-1,3.65,3.65,0,0,0,.54-2.18V39.74h-8V37h1.77a14.57,14.57,0,0,0,6.24-1.29A11,11,0,0,0,31.87,33h2.67c-.06,1.4-.13,3-.19,4.9s-.1,3.54-.1,5V62a4,4,0,0,0,.5,2,3,3,0,0,0,1.44,1.31,12.65,12.65,0,0,0,2.73.64,27.47,27.47,0,0,0,2.84.32Z" fill="none" stroke="#1c3e99" stroke-width="1.5"/></g></g><g id="_2" data-name=" 2" style="isolation:isolate"><g style="isolation:isolate"><path d="M220.64,196.63H190v-4.47a19.56,19.56,0,0,1,2.45-2.28q1.58-1.24,3.73-2.72c.87-.59,1.92-1.23,3.14-1.93s2.61-1.46,4.16-2.29a31.05,31.05,0,0,0,4-2.42,13,13,0,0,0,2.54-2.58,8.39,8.39,0,0,0,1.21-2.53,16.07,16.07,0,0,0,.46-4.34q0-4.08-2.19-6a8.25,8.25,0,0,0-5.63-1.92,9.87,9.87,0,0,0-4,.84,6.22,6.22,0,0,0-2.84,2.3q.22,1,.57,2.49a12,12,0,0,1,.34,2.81,2.94,2.94,0,0,1-1,2.21,4.27,4.27,0,0,1-3.06,1,3,3,0,0,1-2.51-1.13,4.77,4.77,0,0,1-.89-3,7.38,7.38,0,0,1,1-3.55,11.46,11.46,0,0,1,2.82-3.28,14.15,14.15,0,0,1,4.45-2.39,17.37,17.37,0,0,1,5.72-.92q6.71,0,10.65,3a9.53,9.53,0,0,1,3.94,8,12.81,12.81,0,0,1-.7,4.35,8.86,8.86,0,0,1-2.28,3.46,16.73,16.73,0,0,1-4.05,2.86c-1.55.8-3.92,1.9-7.1,3.32-1.9.85-3.66,1.74-5.3,2.66a27.32,27.32,0,0,0-4,2.7h25.15Z" fill="none" stroke="#1c3e99" stroke-width="1.5"/></g></g><g id="_3" data-name=" 3" style="isolation:isolate"><g style="isolation:isolate"><path d="M462.65,115.77a17.45,17.45,0,0,1-5-.68,13.32,13.32,0,0,1-3.92-1.86,8.87,8.87,0,0,1-2.54-2.7,6.18,6.18,0,0,1-.89-3.13,5,5,0,0,1,.7-2.6,2.44,2.44,0,0,1,2.26-1.15,3.76,3.76,0,0,1,2.68.86,2.62,2.62,0,0,1,.92,2,12.09,12.09,0,0,1-.3,2.37c-.21,1-.37,1.64-.49,2a4.9,4.9,0,0,0,.75.7,5.86,5.86,0,0,0,1.34.8,11.69,11.69,0,0,0,2,.7,12.77,12.77,0,0,0,2.91.26,10,10,0,0,0,3.39-.58,7.39,7.39,0,0,0,2.86-1.88,9.75,9.75,0,0,0,2-3.15A13,13,0,0,0,472,103a14.36,14.36,0,0,0-.34-3.13,6.34,6.34,0,0,0-1.25-2.7,5.84,5.84,0,0,0-2.48-1.77,10.78,10.78,0,0,0-4-.63h-3.84V91.43h2.55q4,0,5.85-2.23t1.79-6.71A7.86,7.86,0,0,0,468.54,77a6.38,6.38,0,0,0-4.91-1.86,7.19,7.19,0,0,0-2.51.37,11.49,11.49,0,0,0-1.6.71,5.1,5.1,0,0,0-1.2.91c-.31.33-.55.58-.71.73.14.63.31,1.4.5,2.3a12.14,12.14,0,0,1,.3,2.6,2.62,2.62,0,0,1-.93,2,3.85,3.85,0,0,1-2.71.86,2.51,2.51,0,0,1-2.27-1.11,4.68,4.68,0,0,1-.72-2.58,6.63,6.63,0,0,1,.85-3.11,10.24,10.24,0,0,1,2.52-3,13.36,13.36,0,0,1,4.08-2.22,16.43,16.43,0,0,1,5.53-.85,14.32,14.32,0,0,1,6,1.07,10.69,10.69,0,0,1,3.71,2.59,8.48,8.48,0,0,1,1.82,3.13,10.12,10.12,0,0,1,.5,2.82,11.09,11.09,0,0,1-.41,2.94A8.45,8.45,0,0,1,475,88a11.16,11.16,0,0,1-2.71,2.51A14.74,14.74,0,0,1,468,92.34v.47a16.1,16.1,0,0,1,3.5.73,10.61,10.61,0,0,1,3.36,1.73,9.48,9.48,0,0,1,2.55,3.09,10.25,10.25,0,0,1,1,4.79,11,11,0,0,1-4.51,9.12A17.8,17.8,0,0,1,462.65,115.77Z" fill="none" stroke="#1c3e99" stroke-width="1.5"/></g></g></svg>