<svg xmlns="http://www.w3.org/2000/svg" width="37.554" height="37.537" viewBox="0 0 37.554 37.537"><g transform="translate(-636.28 -1552.785)" fill="none"><path d="M641.943,1567.805V1568c0,.371-.006.742,0,1.112a3.794,3.794,0,0,0,3.832,3.7q5.512,0,11.024,0a.583.583,0,0,1,.344.1q2.464,1.648,4.933,3.291a2.041,2.041,0,0,0,.857.35,1.888,1.888,0,0,0,2.045-2.441c-.114-.38-.249-.754-.374-1.131-.016-.05-.029-.1-.047-.161h2.37c0,.062.009.123.009.185q0,1.475,0,2.949,0,4.037-.007,8.075a2.5,2.5,0,0,1-2.429,2.539c-.086,0-.172,0-.258,0q-6.27,0-12.539,0a.634.634,0,0,0-.373.112q-2.585,1.728-5.175,3.451a1.89,1.89,0,0,1-.177.112.592.592,0,0,1-.68-.053.563.563,0,0,1-.218-.644c.126-.41.266-.816.4-1.224q.259-.779.52-1.558c.018-.055.033-.111.057-.193h-.219q-3.481,0-6.963.006a2.657,2.657,0,0,1-.962-.165,2.515,2.515,0,0,1-1.61-2.234c0-.075,0-.151,0-.226q-.009-6.8-.018-13.6a2.721,2.721,0,0,1,.169-.995,2.3,2.3,0,0,1,1.859-1.506,2.765,2.765,0,0,1,.481-.038c1,0,2,0,3,0Z" stroke="none"/><path d="M 640.3753051757812 1568.80517578125 C 639.8477783203125 1568.80517578125 639.3201904296875 1568.8056640625 638.79150390625 1568.807495117188 C 638.6654663085938 1568.807739257812 638.5653686523438 1568.81494140625 638.485107421875 1568.829345703125 C 637.9111328125 1568.932495117188 637.5811767578125 1569.196411132812 637.3818969726562 1569.712036132812 C 637.3128662109375 1569.890625 637.2794189453125 1570.097534179688 637.2797241210938 1570.344604492188 C 637.2841186523438 1573.42041015625 637.2879638671875 1576.496215820312 637.2918090820312 1579.571899414062 L 637.29736328125 1583.94873046875 C 637.29736328125 1584.018310546875 637.2984619140625 1584.078857421875 637.3007202148438 1584.134155273438 C 637.3245239257812 1584.724487304688 637.7131958007812 1585.263061523438 638.2676391601562 1585.474365234375 C 638.4426879882812 1585.541015625 638.6393432617188 1585.573486328125 638.8687744140625 1585.573486328125 L 638.87255859375 1585.573486328125 C 640.613525390625 1585.571044921875 642.3544311523438 1585.569946289062 644.0952758789062 1585.56884765625 L 645.8366088867188 1585.567626953125 L 646.0555419921875 1585.567626953125 L 647.3901977539062 1585.567626953125 L 647.0152587890625 1586.848510742188 L 646.9962158203125 1586.914794921875 C 646.9815673828125 1586.966186523438 646.9663696289062 1587.019409179688 646.9473266601562 1587.076538085938 C 646.8640747070312 1587.326904296875 646.7804565429688 1587.577270507812 646.6968383789062 1587.827514648438 C 646.6070556640625 1588.096435546875 646.5172119140625 1588.365356445312 646.4279174804688 1588.634155273438 C 646.41259765625 1588.680297851562 646.397216796875 1588.726318359375 646.3817749023438 1588.7724609375 C 647.8232421875 1587.812255859375 649.3099975585938 1586.82177734375 650.7716674804688 1585.844604492188 C 651.0543212890625 1585.656005859375 651.3577270507812 1585.564331054688 651.700927734375 1585.564331054688 C 654.6507568359375 1585.566772460938 657.650146484375 1585.567138671875 660.4519653320312 1585.567138671875 L 662.3455810546875 1585.567016601562 L 664.2392578125 1585.567016601562 C 664.2647094726562 1585.567016601562 664.2901611328125 1585.567138671875 664.3155517578125 1585.5673828125 L 664.378662109375 1585.567626953125 C 664.4044189453125 1585.567626953125 664.4301147460938 1585.567504882812 664.4550170898438 1585.56640625 C 664.92578125 1585.546630859375 665.2825927734375 1585.375366210938 665.5780639648438 1585.027465820312 C 665.8153686523438 1584.748168945312 665.926025390625 1584.429809570312 665.92626953125 1584.025512695312 C 665.9273681640625 1582.115966796875 665.9293212890625 1580.20654296875 665.9312744140625 1578.296997070312 L 665.9336547851562 1575.950439453125 L 665.9340209960938 1575.611083984375 C 665.7777709960938 1576.066650390625 665.4949340820312 1576.483520507812 665.0906372070312 1576.84326171875 C 664.5557861328125 1577.319091796875 663.9069213867188 1577.570556640625 663.2142944335938 1577.570556640625 C 663.0773315429688 1577.570556640625 662.93701171875 1577.560668945312 662.7969970703125 1577.541259765625 C 662.3627319335938 1577.480834960938 661.9462280273438 1577.314453125 661.5232543945312 1577.032470703125 C 660.9126586914062 1576.625122070312 660.3018798828125 1576.218017578125 659.6911010742188 1575.810913085938 C 658.6898193359375 1575.143676757812 657.6885986328125 1574.476440429688 656.6891479492188 1573.80810546875 C 654.9966430664062 1573.809204101562 653.3040771484375 1573.809326171875 651.6115112304688 1573.809326171875 C 649.6671752929688 1573.809448242188 647.7227783203125 1573.8095703125 645.7784423828125 1573.811279296875 L 645.7736206054688 1573.811279296875 L 645.773193359375 1573.811279296875 C 644.6262817382812 1573.811279296875 643.6121826171875 1573.462036132812 642.7589721679688 1572.773071289062 C 641.5902709960938 1571.829223632812 640.980224609375 1570.605224609375 640.9457397460938 1569.135375976562 C 640.943115234375 1569.024780273438 640.9417724609375 1568.914672851562 640.941162109375 1568.805297851562 L 640.3753051757812 1568.80517578125 M 640.3753051757812 1567.80517578125 C 640.7750854492188 1567.80517578125 641.1748046875 1567.805419921875 641.5745849609375 1567.805419921875 C 641.6453247070312 1567.805419921875 641.7160034179688 1567.805419921875 641.7867431640625 1567.805419921875 C 641.8302001953125 1567.805419921875 641.8727416992188 1567.805419921875 641.942626953125 1567.805419921875 C 641.942626953125 1567.884033203125 641.942626953125 1567.942016601562 641.942626953125 1567.999877929688 C 641.943115234375 1568.37060546875 641.9366455078125 1568.741455078125 641.9454345703125 1569.111694335938 C 641.9732666015625 1570.298095703125 642.4721069335938 1571.255981445312 643.3872680664062 1571.9951171875 C 644.0798950195312 1572.554321289062 644.8823852539062 1572.811279296875 645.773193359375 1572.811279296875 C 645.7747192382812 1572.811279296875 645.7760620117188 1572.811279296875 645.777587890625 1572.811279296875 C 649.4522705078125 1572.80810546875 653.1270751953125 1572.810546875 656.8015747070312 1572.807983398438 C 656.8018188476562 1572.807983398438 656.8020629882812 1572.807983398438 656.8023681640625 1572.807983398438 C 656.9313354492188 1572.807983398438 657.0372924804688 1572.838012695312 657.1453857421875 1572.91015625 C 658.788330078125 1574.009033203125 660.43408203125 1575.103515625 662.0783081054688 1576.20068359375 C 662.3406982421875 1576.375610351562 662.6181030273438 1576.506713867188 662.934814453125 1576.55078125 C 663.0298461914062 1576.56396484375 663.1231079101562 1576.570556640625 663.2142944335938 1576.570556640625 C 663.6689453125 1576.570556640625 664.0753784179688 1576.407958984375 664.426025390625 1576.096069335938 C 665.0302734375 1575.558349609375 665.2125854492188 1574.88525390625 664.9795532226562 1574.10986328125 C 664.865234375 1573.729614257812 664.7301025390625 1573.355590820312 664.6051025390625 1572.978759765625 C 664.5886840820312 1572.92919921875 664.5756225585938 1572.87841796875 664.557861328125 1572.817260742188 C 665.3515014648438 1572.817260742188 666.1290893554688 1572.817260742188 666.9275512695312 1572.817260742188 C 666.9306640625 1572.879272460938 666.9366455078125 1572.940551757812 666.9366455078125 1573.002197265625 C 666.9360961914062 1573.985229492188 666.9346923828125 1574.968383789062 666.9336547851562 1575.951538085938 C 666.9310913085938 1578.64306640625 666.9278564453125 1581.334594726562 666.92626953125 1584.026123046875 C 666.9259033203125 1584.646118164062 666.7425537109375 1585.201293945312 666.3402099609375 1585.674926757812 C 665.858642578125 1586.241943359375 665.23974609375 1586.534301757812 664.4970703125 1586.565551757812 C 664.4577026367188 1586.567138671875 664.418212890625 1586.567626953125 664.378662109375 1586.567626953125 C 664.332275390625 1586.567626953125 664.2857666015625 1586.567016601562 664.2392578125 1586.567016601562 C 662.9769897460938 1586.567016601562 661.7142333984375 1586.567138671875 660.4519653320312 1586.567138671875 C 657.5344848632812 1586.567138671875 654.6175537109375 1586.566772460938 651.7001342773438 1586.564331054688 C 651.6998901367188 1586.564331054688 651.6995849609375 1586.564331054688 651.6993408203125 1586.564331054688 C 651.558349609375 1586.564331054688 651.443603515625 1586.598388671875 651.3267822265625 1586.676391601562 C 649.6033325195312 1587.82861328125 647.8776245117188 1588.9775390625 646.1522216796875 1590.126953125 C 646.0941162109375 1590.165649414062 646.0372314453125 1590.207275390625 645.9754638671875 1590.239135742188 C 645.8703002929688 1590.293579101562 645.7659301757812 1590.321655273438 645.6638793945312 1590.321655273438 C 645.5362548828125 1590.321655273438 645.4122924804688 1590.277709960938 645.295166015625 1590.186279296875 C 645.0858154296875 1590.022705078125 644.9979248046875 1589.801635742188 645.0772705078125 1589.542724609375 C 645.203125 1589.13232421875 645.343505859375 1588.726684570312 645.4788818359375 1588.318969726562 C 645.6514892578125 1587.799560546875 645.82568359375 1587.280395507812 645.9984130859375 1586.760986328125 C 646.0167846679688 1586.705932617188 646.031494140625 1586.649780273438 646.0555419921875 1586.567626953125 C 645.9705200195312 1586.567626953125 645.9036865234375 1586.567626953125 645.8366088867188 1586.567626953125 C 643.5157470703125 1586.5693359375 641.1949462890625 1586.5703125 638.8739013671875 1586.573486328125 C 638.8721923828125 1586.573486328125 638.8704833984375 1586.573486328125 638.8687744140625 1586.573486328125 C 638.5393676757812 1586.573486328125 638.2207641601562 1586.526611328125 637.9117431640625 1586.408935546875 C 636.982666015625 1586.054809570312 636.3416137695312 1585.167602539062 636.301513671875 1584.174560546875 C 636.2984619140625 1584.099487304688 636.29736328125 1584.024047851562 636.29736328125 1583.94873046875 C 636.29150390625 1579.41455078125 636.2861938476562 1574.880249023438 636.2797241210938 1570.346069335938 C 636.279296875 1570.004150390625 636.3259887695312 1569.669921875 636.44921875 1569.351318359375 C 636.780029296875 1568.495361328125 637.4139404296875 1568.005737304688 638.308349609375 1567.845092773438 C 638.4658203125 1567.816772460938 638.6288452148438 1567.807861328125 638.7891845703125 1567.807495117188 C 639.31787109375 1567.8056640625 639.8465576171875 1567.80517578125 640.3753051757812 1567.80517578125 Z" stroke="none" fill="#000"/></g><g transform="translate(6.896 0)"><g transform="translate(-1064.1 -635.896)" fill="none"><path d="M1083.733,654.662c.029.092.05.163.073.233q.436,1.306.872,2.611a1.1,1.1,0,0,1,.054.218.62.62,0,0,1-.922.608c-.061-.034-.118-.074-.177-.113q-2.588-1.724-5.174-3.45a.608.608,0,0,0-.358-.11q-5.689,0-11.377,0a2.528,2.528,0,0,1-1.084-.2,2.372,2.372,0,0,1-1.505-2.214c-.031-1.654-.018-3.309-.021-4.963q-.008-4.456-.013-8.912a2.5,2.5,0,0,1,2.054-2.442,3.428,3.428,0,0,1,.577-.038q8.211,0,16.422,0,4.5,0,8.992,0a2.934,2.934,0,0,1,1.075.171,2.285,2.285,0,0,1,1.5,1.864,3.328,3.328,0,0,1,.039.561q0,6.8-.009,13.6a2.485,2.485,0,0,1-1.166,2.174,2.332,2.332,0,0,1-1.147.387c-.118.009-.236.008-.354.008l-8.138,0Z" stroke="none"/><path d="M 1083.411499023438 656.8704833984375 C 1083.314086914062 656.5789184570312 1083.216674804688 656.287353515625 1083.119262695312 655.995849609375 L 1082.857421875 655.2119140625 C 1082.839477539062 655.158203125 1082.82275390625 655.10400390625 1082.803955078125 655.0423583984375 L 1082.778442382812 654.9597778320312 L 1082.3740234375 653.6622314453125 L 1083.733154296875 653.6622314453125 L 1083.944213867188 653.6622314453125 C 1086.656982421875 653.66357421875 1089.36962890625 653.6648559570312 1092.08203125 653.6657104492188 L 1092.096313476562 653.6657104492188 C 1092.188842773438 653.6657104492188 1092.284545898438 653.6657104492188 1092.3642578125 653.659912109375 C 1092.615600585938 653.6417236328125 1092.832275390625 653.5696411132812 1093.02685546875 653.439208984375 C 1093.525756835938 653.105224609375 1093.74853515625 652.690673828125 1093.749267578125 652.0952758789062 C 1093.75390625 648.0933227539062 1093.756713867188 643.771728515625 1093.757934570312 638.4951782226562 C 1093.757934570312 638.3889770507812 1093.75537109375 638.2327880859375 1093.733154296875 638.1038208007812 C 1093.63427734375 637.5308227539062 1093.373046875 637.2014770507812 1092.859252929688 637.0025024414062 C 1092.67529296875 636.9312133789062 1092.455688476562 636.8994140625 1092.145751953125 636.8994140625 C 1091.291625976562 636.8997192382812 1090.437866210938 636.8998413085938 1089.583740234375 636.8998413085938 C 1087.931274414062 636.8998413085938 1086.278686523438 636.8993530273438 1084.626098632812 636.89892578125 L 1083.152709960938 636.8985595703125 L 1080.122436523438 636.8978881835938 C 1076.65625 636.8971557617188 1073.190307617188 636.8963623046875 1069.723999023438 636.8963623046875 L 1066.7314453125 636.8966064453125 C 1066.598022460938 636.8966064453125 1066.445068359375 636.8994140625 1066.323120117188 636.9203491210938 C 1065.636108398438 637.0379638671875 1065.098876953125 637.677001953125 1065.099975585938 638.3751220703125 L 1065.103759765625 641.0311889648438 C 1065.106689453125 643.1163330078125 1065.109619140625 645.2014770507812 1065.113403320312 647.2864379882812 C 1065.1142578125 647.7354736328125 1065.113891601562 648.1846313476562 1065.113525390625 648.6337280273438 C 1065.112548828125 649.8150634765625 1065.111572265625 651.0366821289062 1065.13427734375 652.2327270507812 C 1065.146118164062 652.857666015625 1065.431762695312 653.2665405273438 1066.060791015625 653.5584716796875 C 1066.216796875 653.630859375 1066.421020507812 653.6631469726562 1066.723876953125 653.6631469726562 C 1068.225219726562 653.6625366210938 1069.7265625 653.662353515625 1071.227905273438 653.6621704101562 C 1073.518920898438 653.6619262695312 1075.809814453125 653.66162109375 1078.102294921875 653.6598510742188 C 1078.431640625 653.6598510742188 1078.738891601562 653.7536010742188 1079.014770507812 653.9382934570312 C 1080.441650390625 654.8920288085938 1081.894287109375 655.8597412109375 1083.298950195312 656.7955322265625 L 1083.411499023438 656.8704833984375 M 1084.119873046875 658.4195556640625 C 1084.01708984375 658.4195556640625 1083.913208007812 658.390380859375 1083.809692382812 658.3323974609375 C 1083.748901367188 658.29833984375 1083.691284179688 658.2584228515625 1083.633056640625 658.2197265625 C 1081.907958984375 657.0703125 1080.182495117188 655.921630859375 1078.459106445312 654.7696533203125 C 1078.347534179688 654.6949462890625 1078.237426757812 654.6598510742188 1078.102294921875 654.6598510742188 C 1078.10205078125 654.6598510742188 1078.101806640625 654.6598510742188 1078.1015625 654.6598510742188 C 1074.30908203125 654.6627807617188 1070.5166015625 654.66162109375 1066.724243164062 654.6631469726562 C 1066.723876953125 654.6631469726562 1066.723510742188 654.6631469726562 1066.723266601562 654.6631469726562 C 1066.348876953125 654.6631469726562 1065.981811523438 654.624267578125 1065.639770507812 654.4655151367188 C 1064.6982421875 654.028564453125 1064.154174804688 653.2955322265625 1064.134399414062 652.2516479492188 C 1064.103149414062 650.59765625 1064.116577148438 648.9428100585938 1064.113403320312 647.288330078125 C 1064.108032226562 644.3178100585938 1064.104370117188 641.3470458984375 1064.099975585938 638.3765869140625 C 1064.09814453125 637.1903076171875 1064.981079101562 636.1356201171875 1066.154296875 635.9346923828125 C 1066.34326171875 635.9022827148438 1066.538696289062 635.8966064453125 1066.7314453125 635.8966064453125 C 1067.728759765625 635.896484375 1068.726684570312 635.8964233398438 1069.723999023438 635.8964233398438 C 1074.200561523438 635.8964233398438 1078.676513671875 635.8976440429688 1083.152954101562 635.8985595703125 C 1085.296508789062 635.8991088867188 1087.440185546875 635.8998413085938 1089.583740234375 635.8998413085938 C 1090.437744140625 635.8998413085938 1091.291381835938 635.8997192382812 1092.145385742188 635.8994140625 C 1092.14599609375 635.8994140625 1092.146606445312 635.8994140625 1092.147216796875 635.8994140625 C 1092.515258789062 635.8994140625 1092.876098632812 635.9365844726562 1093.220581054688 636.070068359375 C 1094.077514648438 636.4019775390625 1094.564086914062 637.0380859375 1094.718627929688 637.9337768554688 C 1094.750244140625 638.11767578125 1094.757934570312 638.307861328125 1094.757934570312 638.4951782226562 C 1094.7568359375 643.0289916992188 1094.754516601562 647.5628662109375 1094.749267578125 652.096435546875 C 1094.748046875 653.025634765625 1094.35498046875 653.75341796875 1093.583251953125 654.2701416015625 C 1093.23828125 654.5012817382812 1092.851684570312 654.6273193359375 1092.436157226562 654.6572875976562 C 1092.323364257812 654.66552734375 1092.209594726562 654.6657104492188 1092.096313476562 654.6657104492188 C 1092.091552734375 654.6657104492188 1092.086791992188 654.6657104492188 1092.08203125 654.6657104492188 C 1089.369262695312 654.6648559570312 1086.656494140625 654.66357421875 1083.943725585938 654.6622314453125 C 1083.880615234375 654.6622314453125 1083.81787109375 654.6622314453125 1083.733154296875 654.6622314453125 C 1083.761962890625 654.754638671875 1083.78271484375 654.8256225585938 1083.806030273438 654.8955078125 C 1084.0966796875 655.7659912109375 1084.387939453125 656.6361083984375 1084.677734375 657.5069580078125 C 1084.701293945312 657.5778198242188 1084.723388671875 657.6510009765625 1084.73193359375 657.724609375 C 1084.76220703125 657.97900390625 1084.661254882812 658.1782836914062 1084.449951171875 658.315185546875 C 1084.342407226562 658.3849487304688 1084.231811523438 658.4195556640625 1084.119873046875 658.4195556640625 Z" stroke="none" fill="#000"/></g><path d="M1298.181,874v-5.221a1.954,1.954,0,0,1-.849-.493,1.911,1.911,0,0,1-.487-.841h-2.018c.027.047.047.085.07.122.581.933,1.16,1.867,1.747,2.8a.669.669,0,0,1,.092.563,4.16,4.16,0,0,1-.711,1.495,1.67,1.67,0,0,1-.739.564,1.316,1.316,0,0,1-.45.073c-.6,0-1.192.005-1.788.01a1.285,1.285,0,0,1-.89-.345,2.375,2.375,0,0,1-.464-.584,4.766,4.766,0,0,1-.472-1.107,1.2,1.2,0,0,1-.042-.37.507.507,0,0,1,.08-.262q.954-1.519,1.906-3.039c.122-.194.246-.388.365-.584a.545.545,0,0,1,.508-.283c.882.006,1.764,0,2.646,0h.143a1.891,1.891,0,0,1,3.65,0h.137c.882,0,1.764,0,2.646,0a.576.576,0,0,1,.536.3q1.137,1.832,2.278,3.661a.453.453,0,0,1,.069.357c-.029.121-.053.244-.094.362a4.274,4.274,0,0,1-.637,1.24,1.66,1.66,0,0,1-.745.575,1.314,1.314,0,0,1-.45.074q-.906,0-1.812,0a1.32,1.32,0,0,1-1-.478,3.243,3.243,0,0,1-.592-.976c-.1-.245-.172-.5-.253-.754a.48.48,0,0,1,.066-.424q.9-1.431,1.793-2.867c.023-.036.043-.074.071-.123h-2.016a1.923,1.923,0,0,1-1.332,1.333v5.215c.041,0,.08.008.118.008.89,0,1.78,0,2.67,0a.468.468,0,0,1,.472.609.441.441,0,0,1-.388.329c-.048,0-.1,0-.145,0H1295.4a.751.751,0,0,1-.18-.015.447.447,0,0,1-.33-.463.456.456,0,0,1,.372-.445,1.1,1.1,0,0,1,.2-.014h2.715Zm-4.21-6.14c-.026.035-.041.053-.053.073l-1.423,2.285s0,.007,0,.011l.005.01c.362.027,2.849.013,2.942-.019Zm10.863,2.378-1.489-2.381-1.492,2.381Zm-6.176-4.205a.934.934,0,1,0,.932.95A.926.926,0,0,0,1298.658,866.032Zm-6.345,5.161a.149.149,0,0,0,0,.04,1.841,1.841,0,0,0,.474.788.368.368,0,0,0,.274.1c.568,0,1.136-.006,1.7,0a.547.547,0,0,0,.436-.191,2.19,2.19,0,0,0,.355-.544,1.955,1.955,0,0,0,.069-.2Zm12.694,0h-3.314a.228.228,0,0,0,0,.051,1.894,1.894,0,0,0,.46.77.389.389,0,0,0,.3.111c.568,0,1.136-.005,1.7,0a.517.517,0,0,0,.4-.165,2.077,2.077,0,0,0,.4-.6A1.737,1.737,0,0,0,1305.006,871.193Z" transform="translate(-1287.518 -861.404)" fill="#0d3fb8"/><g transform="translate(20.528 4.167)"><path d="M2340.762,899.208a5.747,5.747,0,0,1,.86-.941,5.009,5.009,0,0,0,.609-.634.944.944,0,0,0,.195-.584.861.861,0,0,0-.37-.734,1.637,1.637,0,0,0-.986-.27,2.186,2.186,0,0,0-1.048.245,2.236,2.236,0,0,0-.772.684l-1.519-.891a3.52,3.52,0,0,1,1.425-1.243,4.791,4.791,0,0,1,2.128-.439,3.944,3.944,0,0,1,2.316.615,1.974,1.974,0,0,1,.872,1.707,2.248,2.248,0,0,1-.169.9,2.4,2.4,0,0,1-.414.659q-.245.27-.634.621a5.3,5.3,0,0,0-.678.7,1.1,1.1,0,0,0-.214.684h-1.9A1.854,1.854,0,0,1,2340.762,899.208Zm-.2,3.9a1.081,1.081,0,0,1-.345-.81,1.053,1.053,0,0,1,.339-.8,1.332,1.332,0,0,1,1.732,0,1.051,1.051,0,0,1,.339.8,1.082,1.082,0,0,1-.345.81,1.277,1.277,0,0,1-1.72,0Z" transform="translate(-2337.73 -894.4)" fill="#0d3fb8"/></g></g><path d="M752.174,1725.737h-7.961c-.07,0-.14,0-.209,0a.629.629,0,0,0-.013,1.253c.053,0,.107,0,.161,0h16.067a1.558,1.558,0,0,0,.177,0,.629.629,0,0,0-.035-1.252c-.07,0-.14,0-.209,0Zm.018-5h-7.96c-.064,0-.129,0-.193,0a.627.627,0,0,0,0,1.254h16.194c.048,0,.1,0,.145,0a.631.631,0,0,0,.112-1.233,1.276,1.276,0,0,0-.288-.02Zm-.016,3.752h7.977c.07,0,.14,0,.209,0a.59.59,0,0,0,.56-.51.6.6,0,0,0-.375-.689,1.071,1.071,0,0,0-.347-.049q-8.017,0-16.034,0a1.438,1.438,0,0,0-.225.014.6.6,0,0,0-.5.648.591.591,0,0,0,.568.588c.07,0,.14,0,.209,0Z" transform="translate(-737.673 -1697.097)" fill="#0d3fb8"/></svg>