<svg xmlns="http://www.w3.org/2000/svg" width="877.929" height="877.938" viewBox="0 0 877.929 877.938">
  <g id="loader_icon" data-name="loader icon" transform="translate(-1488.98 -1281.435)">
    <g id="clouds_and_lines" data-name="clouds and lines" transform="translate(1220.128 1164.435)" style="isolation: isolate">
      <g id="Clouds" transform="translate(339.582 298.661)">
        <g id="Group_1" data-name="Group 1" transform="translate(497.719 1.611)">
          <path id="Path_5" data-name="Path 5" d="M536.6,245.725h-1.888a6.552,6.552,0,0,1-6.54-6.527v-.011a6.552,6.552,0,0,1,6.54-6.527h8.245a51.217,51.217,0,0,1,63.265-18,31.315,31.315,0,0,1,53.564,3.855A25.913,25.913,0,0,1,693.6,232.66H705a6.552,6.552,0,0,1,6.54,6.527v.011a6.552,6.552,0,0,1-6.54,6.527Z" transform="translate(-528.171 -201.346)" fill="none" stroke="#0d3fb8" stroke-linecap="round" stroke-linejoin="round" stroke-width="4"/>
        </g>
        <g id="Group_2" data-name="Group 2" transform="translate(0 371.512)">
          <path id="Path_6" data-name="Path 6" d="M444.837,405.6h1.54a5.348,5.348,0,0,0,5.338-5.327v-.009a5.348,5.348,0,0,0-5.338-5.327h-6.727a41.794,41.794,0,0,0-51.627-14.687,25.555,25.555,0,0,0-43.711,3.146,21.145,21.145,0,0,0-27.6,11.542h-9.3a5.348,5.348,0,0,0-5.338,5.327v.009a5.348,5.348,0,0,0,5.338,5.327Z" transform="translate(-302.074 -369.379)" fill="none" stroke="#0d3fb8" stroke-linecap="round" stroke-linejoin="round" stroke-width="4"/>
        </g>
        <g id="Group_3" data-name="Group 3" transform="translate(116.672)">
          <path id="Path_7" data-name="Path 7" d="M360.456,223.118h1.24a11.071,11.071,0,0,1,10.79-7.826,11.733,11.733,0,0,1,4.215.779,12.065,12.065,0,0,1-.315-2.736c0-7.027,6.05-12.722,13.512-12.722a13.714,13.714,0,0,1,11.45,5.966,23.331,23.331,0,0,1,7-1.072c11.051,0,20.207,7.639,21.832,17.611h1.747a5.245,5.245,0,0,1,5.38,5.065v.009a5.245,5.245,0,0,1-5.38,5.063H360.456a5.245,5.245,0,0,1-5.382-5.063v-.009A5.246,5.246,0,0,1,360.456,223.118Z" transform="translate(-355.074 -200.614)" fill="none" stroke="#0d3fb8" stroke-linecap="round" stroke-linejoin="round" stroke-width="4"/>
        </g>
        <g id="Group_4" data-name="Group 4" transform="translate(405.678 454.571)">
          <path id="Path_8" data-name="Path 8" d="M574.15,432.815h-1.416a12.65,12.65,0,0,0-12.328-8.94,13.42,13.42,0,0,0-4.815.889,13.787,13.787,0,0,0,.362-3.126c0-8.024-6.911-14.529-15.436-14.529a15.66,15.66,0,0,0-13.08,6.813,26.636,26.636,0,0,0-8-1.226c-12.623,0-23.083,8.726-24.94,20.118h-1.994a5.99,5.99,0,0,0-6.145,5.785v.011a5.99,5.99,0,0,0,6.145,5.785H574.15a5.992,5.992,0,0,0,6.145-5.785V438.6A5.992,5.992,0,0,0,574.15,432.815Z" transform="translate(-486.36 -407.11)" fill="none" stroke="#0d3fb8" stroke-linecap="round" stroke-linejoin="round" stroke-width="4"/>
        </g>
      </g>
      <g id="Lines" transform="translate(270.852 119)" style="isolation: isolate">
        <line id="Line_33" data-name="Line 33" y2="26.956" transform="translate(423.617 26.956)" fill="none" stroke="#0d3fb8" stroke-linecap="round" stroke-linejoin="round" stroke-width="4"/>
        <line id="Line_34" data-name="Line 34" y2="13.478" transform="translate(423.617)" fill="none" stroke="#0d3fb8" stroke-linecap="round" stroke-linejoin="round" stroke-width="4"/>
        <line id="Line_35" data-name="Line 35" y1="158.745" transform="translate(424.457 72.142)" fill="none" stroke="#0d3fb8" stroke-linecap="round" stroke-linejoin="round" stroke-width="4"/>
        <line id="Line_36" data-name="Line 36" y1="26.956" transform="translate(424.457 820.026)" fill="none" stroke="#0d3fb8" stroke-linecap="round" stroke-linejoin="round" stroke-width="4"/>
        <line id="Line_37" data-name="Line 37" y1="13.478" transform="translate(424.457 860.46)" fill="none" stroke="#0d3fb8" stroke-linecap="round" stroke-linejoin="round" stroke-width="4"/>
        <line id="Line_38" data-name="Line 38" y2="158.745" transform="translate(423.617 643.051)" fill="none" stroke="#0d3fb8" stroke-linecap="round" stroke-linejoin="round" stroke-width="4"/>
        <line id="Line_39" data-name="Line 39" x2="19.099" y2="19.061" transform="translate(153.46 120.435)" fill="none" stroke="#0d3fb8" stroke-linecap="round" stroke-linejoin="round" stroke-width="4"/>
        <line id="Line_40" data-name="Line 40" x2="9.549" y2="9.53" transform="translate(134.361 101.374)" fill="none" stroke="#0d3fb8" stroke-linecap="round" stroke-linejoin="round" stroke-width="4"/>
        <line id="Line_41" data-name="Line 41" x1="28.919" y1="28.862" transform="translate(186.068 151.793)" fill="none" stroke="#0d3fb8" stroke-linecap="round" stroke-linejoin="round" stroke-width="4"/>
        <line id="Line_42" data-name="Line 42" x1="51.782" y1="51.679" transform="translate(246.759 212.363)" fill="none" stroke="#0d3fb8" stroke-linecap="round" stroke-linejoin="round" stroke-width="4"/>
        <line id="Line_43" data-name="Line 43" x1="19.099" y2="19.061" transform="translate(674.922 119.842)" fill="none" stroke="#0d3fb8" stroke-linecap="round" stroke-linejoin="round" stroke-width="4"/>
        <line id="Line_44" data-name="Line 44" x1="9.549" y2="9.53" transform="translate(703.57 100.781)" fill="none" stroke="#0d3fb8" stroke-linecap="round" stroke-linejoin="round" stroke-width="4"/>
        <line id="Line_45" data-name="Line 45" y1="37.772" x2="37.847" transform="translate(624.753 152.386)" fill="none" stroke="#0d3fb8" stroke-linecap="round" stroke-linejoin="round" stroke-width="4"/>
        <line id="Line_46" data-name="Line 46" y1="38.238" x2="38.314" transform="translate(550.128 226.397)" fill="none" stroke="#0d3fb8" stroke-linecap="round" stroke-linejoin="round" stroke-width="4"/>
        <line id="Line_47" data-name="Line 47" x2="27.01" transform="translate(27.01 412.262)" fill="none" stroke="#0d3fb8" stroke-linecap="round" stroke-linejoin="round" stroke-width="4"/>
        <line id="Line_48" data-name="Line 48" x2="13.505" transform="translate(0 412.262)" fill="none" stroke="#0d3fb8" stroke-linecap="round" stroke-linejoin="round" stroke-width="4"/>
        <line id="Line_49" data-name="Line 49" x1="159.06" transform="translate(72.285 411.423)" fill="none" stroke="#0d3fb8" stroke-linecap="round" stroke-linejoin="round" stroke-width="4"/>
        <line id="Line_50" data-name="Line 50" y1="19.061" x2="19.099" transform="translate(139.545 695.111)" fill="none" stroke="#0d3fb8" stroke-linecap="round" stroke-linejoin="round" stroke-width="4"/>
        <line id="Line_51" data-name="Line 51" y1="9.53" x2="9.549" transform="translate(120.446 723.702)" fill="none" stroke="#0d3fb8" stroke-linecap="round" stroke-linejoin="round" stroke-width="4"/>
        <line id="Line_52" data-name="Line 52" x1="112.472" y2="112.25" transform="translate(170.965 569.378)" fill="none" stroke="#0d3fb8" stroke-linecap="round" stroke-linejoin="round" stroke-width="4"/>
        <line id="Line_53" data-name="Line 53" x1="19.099" y1="19.061" transform="translate(711.109 669.944)" fill="none" stroke="#0d3fb8" stroke-linecap="round" stroke-linejoin="round" stroke-width="4"/>
        <line id="Line_54" data-name="Line 54" x1="9.549" y1="9.53" transform="translate(739.757 698.535)" fill="none" stroke="#0d3fb8" stroke-linecap="round" stroke-linejoin="round" stroke-width="4"/>
        <line id="Line_55" data-name="Line 55" x2="112.472" y2="112.25" transform="translate(585.127 545.397)" fill="none" stroke="#0d3fb8" stroke-linecap="round" stroke-linejoin="round" stroke-width="4"/>
        <line id="Line_56" data-name="Line 56" x1="27.01" transform="translate(819.91 411.111)" fill="none" stroke="#0d3fb8" stroke-linecap="round" stroke-linejoin="round" stroke-width="4"/>
        <line id="Line_57" data-name="Line 57" x1="13.505" transform="translate(860.424 411.111)" fill="none" stroke="#0d3fb8" stroke-linecap="round" stroke-linejoin="round" stroke-width="4"/>
        <line id="Line_58" data-name="Line 58" x2="159.06" transform="translate(642.585 411.949)" fill="none" stroke="#0d3fb8" stroke-linecap="round" stroke-linejoin="round" stroke-width="4"/>
        <line id="Line_59" data-name="Line 59" x1="42.896" y1="127.133" transform="translate(327.112 148.797)" fill="none" stroke="#0d3fb8" stroke-linecap="round" stroke-linejoin="round" stroke-width="4"/>
        <line id="Line_60" data-name="Line 60" x2="20.93" y2="62.032" transform="translate(502.676 671.344)" fill="none" stroke="#0d3fb8" stroke-linecap="round" stroke-linejoin="round" stroke-width="4"/>
        <line id="Line_61" data-name="Line 61" x2="12.7" y2="37.639" transform="translate(480.71 606.243)" fill="none" stroke="#0d3fb8" stroke-linecap="round" stroke-linejoin="round" stroke-width="4"/>
        <line id="Line_62" data-name="Line 62" x1="120.407" y1="59.624" transform="translate(157.718 276.749)" fill="none" stroke="#0d3fb8" stroke-linecap="round" stroke-linejoin="round" stroke-width="4"/>
        <line id="Line_63" data-name="Line 63" y1="120.169" x2="59.743" transform="translate(479.772 148.965)" fill="none" stroke="#0d3fb8" stroke-linecap="round" stroke-linejoin="round" stroke-width="4"/>
        <line id="Line_64" data-name="Line 64" x1="127.385" y2="42.811" transform="translate(136.751 472.491)" fill="none" stroke="#0d3fb8" stroke-linecap="round" stroke-linejoin="round" stroke-width="4"/>
        <line id="Line_65" data-name="Line 65" x1="59.743" y2="120.169" transform="translate(288.795 584.97)" fill="none" stroke="#0d3fb8" stroke-linecap="round" stroke-linejoin="round" stroke-width="4"/>
        <line id="Line_66" data-name="Line 66" x2="120.407" y2="59.624" transform="translate(583.669 484.565)" fill="none" stroke="#0d3fb8" stroke-linecap="round" stroke-linejoin="round" stroke-width="4"/>
        <line id="Line_67" data-name="Line 67" y1="42.811" x2="127.385" transform="translate(593.624 319.416)" fill="none" stroke="#0d3fb8" stroke-linecap="round" stroke-linejoin="round" stroke-width="4"/>
      </g>
    </g>
    <path id="scale" d="M1418.375,1026.1V931.668a35.544,35.544,0,0,1-15.412-8.92,34.525,34.525,0,0,1-8.851-15.214h-36.657c.492.857.852,1.543,1.262,2.2,10.56,16.872,21.061,33.777,31.737,50.573a12.077,12.077,0,0,1,1.662,10.192c-2.721,9.747-6.555,19.007-12.915,27.036a30.309,30.309,0,0,1-13.418,10.207,24.019,24.019,0,0,1-8.176,1.321c-10.826.059-21.653.1-32.476.178a23.392,23.392,0,0,1-16.174-6.233,43.059,43.059,0,0,1-8.421-10.571,85.983,85.983,0,0,1-8.58-20.033,21.52,21.52,0,0,1-.768-6.69,9.137,9.137,0,0,1,1.446-4.735q17.323-27.473,34.614-54.966c2.213-3.515,4.462-7.011,6.627-10.561a9.9,9.9,0,0,1,9.231-5.124c16.018.109,32.034.043,48.053.043h2.6c5.652-15.644,16.118-25.353,33.276-25.269,16.933.082,27.359,9.656,33.021,25.269h2.485c16.02,0,32.039.088,48.055-.055a10.472,10.472,0,0,1,9.738,5.446q20.652,33.129,41.375,66.215a8.172,8.172,0,0,1,1.247,6.451c-.521,2.193-.97,4.42-1.7,6.546a77.246,77.246,0,0,1-11.57,22.434,30.157,30.157,0,0,1-13.529,10.409,23.907,23.907,0,0,1-8.178,1.342q-16.458.078-32.913.078c-7.446,0-13.346-3.294-18.24-8.645a58.661,58.661,0,0,1-10.756-17.656c-1.814-4.434-3.123-9.076-4.6-13.641a8.652,8.652,0,0,1,1.192-7.676q16.357-25.887,32.569-51.861c.412-.659.777-1.343,1.284-2.229H1459.91c-3.8,12.131-11.81,20.251-24.186,24.1v94.334c.746.052,1.446.143,2.145.143,16.165,0,32.329.078,48.494-.049,7.212-.059,9.962,6.256,8.58,11.013a8,8,0,0,1-7.056,5.96c-.872.082-1.752.066-2.631.066q-58.7.006-117.393-.009a13.7,13.7,0,0,1-3.262-.267,8.085,8.085,0,0,1-5.99-8.38,8.248,8.248,0,0,1,6.75-8.055,19.946,19.946,0,0,1,3.709-.259q23.151-.027,46.3-.013C1416.309,1026.1,1417.245,1026.1,1418.375,1026.1Zm-76.462-111.059c-.469.641-.741.968-.968,1.323q-12.929,20.659-25.838,41.327c-.027.043.018.134.041.2a1.717,1.717,0,0,0,.094.189c6.574.484,51.754.238,53.441-.337C1359.813,943.59,1350.956,929.464,1341.913,915.042Zm197.3,43.02-27.036-43.076c-9.09,14.454-18.014,28.645-27.091,43.076Z" transform="translate(491.768 753.402)" fill="none" stroke="#0d3fb8" stroke-width="4"/>
  </g>
</svg>
