<svg xmlns="http://www.w3.org/2000/svg" width="15.025" height="19.985" viewBox="0 0 15.025 19.985"><g transform="translate(-365.988 -16.012)"><g transform="translate(338.045 -8.376)"><path d="M35.455,25.083a6.945,6.945,0,0,0-6.818,7.066c0,5.37,6.818,11.305,6.818,11.305s6.818-5.935,6.818-11.305A6.945,6.945,0,0,0,35.455,25.083Zm0,10.245A2.828,2.828,0,1,1,38.182,32.5,2.778,2.778,0,0,1,35.455,35.328Z" fill="none" stroke="#0d3fb8" stroke-miterlimit="10" stroke-width="1.388"/></g><path d="M366.682,23.773a6.823,6.823,0,1,1,13.637,0c0,5.369-6.818,11.3-6.818,11.3S366.682,29.142,366.682,23.773Zm4.091.353A2.729,2.729,0,1,0,373.5,21.3,2.778,2.778,0,0,0,370.773,24.125Z" fill="transparent"/></g></svg>
