<svg xmlns="http://www.w3.org/2000/svg" width="20.001" height="20.001" viewBox="0 0 20.001 20.001"><g transform="translate(-58.484 -25.273)"><path d="M66.422,41.149A7.94,7.94,0,1,1,72.038,27.6h0a7.938,7.938,0,0,1-5.616,13.554Zm0-14.433a6.495,6.495,0,1,0,4.595,1.9A6.477,6.477,0,0,0,66.422,26.716Z" fill="#333"/><path d="M77.463,45.273,71.017,38.1l1.021-1.021,6.446,7.168Z" fill="#333"/></g><path d="M1298.354,102.746a7.938,7.938,0,1,1,.967-1.082l5.679,6.315L1303.979,109Zm-10.012-10.4a6.506,6.506,0,1,0,4.595-1.9A6.5,6.5,0,0,0,1288.343,92.344Z" transform="translate(-1285 -89)" fill="#0d3fb8"/></svg>