<?xml version="1.0" encoding="utf-8"?>
<!-- Generator: Adobe Illustrator 25.4.1, SVG Export Plug-In . SVG Version: 6.00 Build 0)  -->
<svg version="1.1" xmlns="http://www.w3.org/2000/svg" xmlns:xlink="http://www.w3.org/1999/xlink" x="0px" y="0px"
	 viewBox="0 0 97 97" enable-background="new 0 0 97 97" xml:space="preserve">
<path fill="#0D3FB8" d="M70.3,33c-4.2,0-8.6-1.5-12.8-3c-4.4-1.5-8.9-3-13.6-3l-4.8,0c-2.1-0.1-4.1,0.4-5.8,1.6
	c-1.4,1-2.2,2.5-2.4,4.1c-1,0.3-2,0.9-2.5,1.8c-0.8,1.3-1.2,2.9-1.1,4.4c0,0.9,0.1,1.7,0.4,2.5c-1.6,1-2.6,2.7-2.8,4.6
	c0,1.1,0.3,2.1,0.9,3.1c0.3,0.4,0.6,0.8,1,1.1c-1.1,1.1-1.8,2.6-1.9,4.2c-0.1,1.8,0.5,3.6,1.8,4.9c1.3,1.2,3,1.7,4.7,1.6
	c0.6,0,1.1-0.5,1.1-1.1s-0.5-1.1-1.1-1.1c0,0,0,0,0,0c-1.2,0.1-2.3-0.3-3.1-1c-0.8-0.9-1.2-2-1.1-3.2c0.1-1.3,0.8-2.5,1.9-3.3
	c0.3-0.1,0.4-0.4,0.5-0.7c0.1-0.3,0-0.6-0.1-0.8c-0.1-0.1-0.1-0.2-0.2-0.3c-0.6-0.5-1.1-1-1.6-1.6c-0.3-0.5-0.5-1.1-0.5-1.8
	c0-1.2,1-2.4,2.4-3.2c0.5-0.3,0.7-0.9,0.5-1.4c-0.3-0.8-0.5-1.7-0.5-2.6c0-1.1,0.2-2.2,0.8-3.2c0.3-0.6,1-1,1.7-1
	c0.6,0,1.1-0.5,1.1-1.1c-0.1-1.2,0.5-2.4,1.5-3.1c1.4-0.8,2.9-1.3,4.6-1.2h4.8c4.3,0,8.7,1.5,12.9,3c3.8,1.3,8.1,2.8,12.4,3v18.3
	c-5.2,0.1-7.8,0.9-12.1,3.8c-0.1,0.1-0.2,0.2-0.3,0.3c-2.3,3.6-5.5,6.6-9.2,8.6c-0.1,0-0.2,0.1-0.3,0.2c-2,2.3-3.7,4.8-4.9,7.5
	c-0.5,1-1.1,1.9-1.7,2.8c-0.5,0.7-0.8,0.8-1,0.8c-0.5,0-1-0.3-1.3-0.8c-0.4-0.9-0.7-1.9-0.6-2.9c0-4.3,2.2-8,4.2-11.5
	c0.3-0.6,0.7-1.2,1-1.7c0.1-0.3,0.2-0.6,0.1-0.8c-0.1-0.3-0.3-0.5-0.5-0.7c-0.2-0.1-0.4-0.2-0.6-0.1h-7.2c-0.6,0-1.1,0.5-1.1,1.1
	s0.5,1.1,1.1,1.1h5.3l-0.1,0.2c-2.2,3.7-4.5,7.5-4.5,12.5c-0.1,1.4,0.2,2.8,0.9,4.1c0.7,1.2,1.9,1.9,3.2,1.9c0,0,0,0,0,0l0,0
	c1.1-0.1,2.1-0.7,2.7-1.6c0.7-1,1.3-2,1.9-3.1c1.2-2.5,2.7-4.9,4.6-7c3.8-2.2,7.2-5.3,9.6-9c4.5-2.9,6.5-3.3,11.8-3.3
	c0.6,0,1.1-0.5,1.1-1.1V34.1C71.4,33.5,70.9,33,70.3,33z"/>
<g>
	<circle fill="none" cx="48.5" cy="48.5" r="48.5"/>
	<path fill="#0D3FB8" d="M48.5,97C21.8,97,0,75.2,0,48.5S21.8,0,48.5,0S97,21.8,97,48.5S75.2,97,48.5,97z M48.5,2.5
		c-25.4,0-46,20.6-46,46s20.6,46,46,46s46-20.6,46-46S73.9,2.5,48.5,2.5z"/>
</g>
</svg>
