<?xml version="1.0" encoding="utf-8"?>
<!-- Generator: Adobe Illustrator 25.4.1, SVG Export Plug-In . SVG Version: 6.00 Build 0)  -->
<svg version="1.1" xmlns="http://www.w3.org/2000/svg" xmlns:xlink="http://www.w3.org/1999/xlink" x="0px" y="0px"
	 viewBox="0 0 97 97" enable-background="new 0 0 97 97" xml:space="preserve">
<path fill="#0D3FB8" d="M26.7,64c4.2,0,8.6,1.5,12.8,3c4.4,1.5,8.9,3,13.6,3l4.8,0c2.1,0.1,4.1-0.4,5.8-1.6c1.4-1,2.2-2.5,2.4-4.1
	c1-0.3,2-0.9,2.5-1.8c0.8-1.3,1.2-2.9,1.1-4.4c0-0.9-0.1-1.7-0.4-2.5c1.6-1,2.6-2.7,2.8-4.6c0-1.1-0.3-2.1-0.9-3.1
	c-0.3-0.4-0.6-0.8-1-1.1c1.1-1.1,1.8-2.6,1.9-4.2c0.1-1.8-0.5-3.6-1.8-4.9c-1.3-1.2-3-1.7-4.7-1.6c-0.6,0-1.1,0.5-1.1,1.1
	s0.5,1.1,1.1,1.1c0,0,0,0,0,0c1.2-0.1,2.3,0.3,3.1,1c0.8,0.9,1.2,2,1.1,3.2c-0.1,1.3-0.8,2.5-1.9,3.3c-0.3,0.1-0.4,0.4-0.5,0.7
	c-0.1,0.3,0,0.6,0.1,0.8c0.1,0.1,0.1,0.2,0.2,0.3c0.6,0.5,1.1,1,1.6,1.6c0.3,0.5,0.5,1.1,0.5,1.8c0,1.2-1,2.4-2.4,3.2
	c-0.5,0.3-0.7,0.9-0.5,1.4c0.3,0.8,0.5,1.7,0.5,2.6c0,1.1-0.2,2.2-0.8,3.2c-0.3,0.6-1,1-1.7,1c-0.6,0-1.1,0.5-1.1,1.1
	c0.1,1.2-0.5,2.4-1.5,3.1c-1.4,0.8-2.9,1.3-4.6,1.2h-4.8c-4.3,0-8.7-1.5-12.9-3c-3.8-1.3-8.1-2.8-12.4-3V43.6
	c5.2-0.1,7.8-0.9,12.1-3.8c0.1-0.1,0.2-0.2,0.3-0.3c2.3-3.6,5.5-6.6,9.2-8.6c0.1,0,0.2-0.1,0.3-0.2c2-2.3,3.7-4.8,4.9-7.5
	c0.5-1,1.1-1.9,1.7-2.8c0.5-0.7,0.8-0.8,1-0.8c0.5,0,1,0.3,1.3,0.8c0.4,0.9,0.7,1.9,0.6,2.9c0,4.3-2.2,8-4.2,11.5
	c-0.3,0.6-0.7,1.2-1,1.7c-0.1,0.3-0.2,0.6-0.1,0.8c0.1,0.3,0.3,0.5,0.5,0.7c0.2,0.1,0.4,0.2,0.6,0.1h7.2c0.6,0,1.1-0.5,1.1-1.1
	S62.7,36,62.1,36h-5.3l0.1-0.2c2.2-3.7,4.5-7.5,4.5-12.5c0.1-1.4-0.2-2.8-0.9-4.1c-0.7-1.2-1.9-1.9-3.2-1.9c0,0,0,0,0,0l0,0
	c-1.1,0.1-2.1,0.7-2.7,1.6c-0.7,1-1.3,2-1.9,3.1c-1.2,2.5-2.7,4.9-4.6,7c-3.8,2.2-7.2,5.3-9.6,9c-4.5,2.9-6.5,3.3-11.8,3.3
	c-0.6,0-1.1,0.5-1.1,1.1v20.4C25.6,63.5,26.1,64,26.7,64z"/>
<g>
	<circle fill="none" cx="48.5" cy="48.5" r="48.5"/>
	<path fill="#0D3FB8" d="M48.5,0C75.2,0,97,21.8,97,48.5S75.2,97,48.5,97S0,75.2,0,48.5S21.8,0,48.5,0z M48.5,94.5
		c25.4,0,46-20.6,46-46s-20.6-46-46-46s-46,20.6-46,46S23.1,94.5,48.5,94.5z"/>
</g>
</svg>
