<svg xmlns="http://www.w3.org/2000/svg" width="19.997" height="20.005" viewBox="0 0 19.997 20.005"><path d="M34.929,33.071A10,10,0,1,1,42,36,9.945,9.945,0,0,1,34.929,33.071ZM39.037,26a3.4,3.4,0,0,0,1.337,2.979c.928.115,2.366.942,2.366,3.507a4.747,4.747,0,0,1-.381,2.026,8.526,8.526,0,0,0,7.4-4.985,2.7,2.7,0,0,1-.4.031,1.713,1.713,0,0,1-.877-.218A1.573,1.573,0,0,1,47.74,27.9c-.131.01-.3.035-.441.055a3.644,3.644,0,0,1-4.064-1.55c-1.583-2.378-.808-3.76-.345-4.586a2.153,2.153,0,0,0,.221-.461,19.806,19.806,0,0,0-1.564-3.873,8.526,8.526,0,0,0-7.17,4.693C36,22.5,39.037,23.434,39.037,26Zm-5.555,0a8.512,8.512,0,0,0,6.952,8.376.593.593,0,0,0,.373-.185,2.5,2.5,0,0,0,.452-1.706c0-2.016-1.1-2.038-1.111-2.038h-.174l-.157-.078A4.736,4.736,0,0,1,37.555,26c0-1.582-2.567-2.2-3.731-2.405A8.566,8.566,0,0,0,33.482,26Zm15.3.728a1.417,1.417,0,0,1,.44,1.125.53.53,0,0,0,.032.23,2.374,2.374,0,0,0,1.074-.28,8.614,8.614,0,0,0,.19-1.8,8.511,8.511,0,0,0-7.292-8.432,14.131,14.131,0,0,1,1.367,3.8,2.406,2.406,0,0,1-.41,1.184c-.391.7-.795,1.417.285,3.038.781,1.174,1.675,1.042,2.62.905a5.388,5.388,0,0,1,.756-.073A1.367,1.367,0,0,1,48.781,26.724Z" transform="translate(-32.001 -15.993)" fill="#0d3fb8"/></svg>